{
  "accessors": [
    {
      "bufferView": 2,
      "componentType": 5126,
      "count": 1602,
      "max": [
        0.9999997019767761,
        1.1217176914215088,
        0.9999993443489075
      ],
      "min": [
        -0.9999990463256836,
        -1.0,
        -1.0
      ],
      "type": "VEC3"
    },
    {
      "bufferView": 2,
      "byteOffset": 19224,
      "componentType": 5126,
      "count": 1602,
      "max": [
        1.0,
        1.0,
        1.0
      ],
      "min": [
        -1.0,
        -1.0,
        -1.0
      ],
      "type": "VEC3"
    },
    {
      "bufferView": 1,
      "componentType": 5126,
      "count": 1602,
      "max": [
        0.735098123550415,
        0.644934892654419
      ],
      "min": [
        0.2886929214000702,
        0.29844537377357483
      ],
      "type": "VEC2"
    },
    {
      "bufferView": 1,
      "byteOffset": 12816,
      "componentType": 5126,
      "count": 1602,
      "max": [
        0.735098123550415,
        0.644934892654419
      ],
      "min": [
        0.2886929214000702,
        0.29844537377357483
      ],
      "type": "VEC2"
    },
    {
      "bufferView": 0,
      "componentType": 5125,
      "count": 8832,
      "type": "SCALAR"
    },
    {
      "bufferView": 2,
      "byteOffset": 38448,
      "componentType": 5126,
      "count": 1602,
      "max": [
        0.9999997019767761,
        1.1217176914215088,
        0.9999993443489075
      ],
      "min": [
        -0.9999990463256836,
        -1.0,
        -1.0
      ],
      "type": "VEC3"
    },
    {
      "bufferView": 2,
      "byteOffset": 57672,
      "componentType": 5126,
      "count": 1602,
      "max": [
        1.0,
        1.0,
        1.0
      ],
      "min": [
        -1.0,
        -1.0,
        -1.0
      ],
      "type": "VEC3"
    },
    {
      "bufferView": 1,
      "byteOffset": 25632,
      "componentType": 5126,
      "count": 1602,
      "max": [
        0.735098123550415,
        0.644934892654419
      ],
      "min": [
        0.2886929214000702,
        0.29844537377357483
      ],
      "type": "VEC2"
    },
    {
      "bufferView": 1,
      "byteOffset": 38448,
      "componentType": 5126,
      "count": 1602,
      "max": [
        0.735098123550415,
        0.644934892654419
      ],
      "min": [
        0.2886929214000702,
        0.29844537377357483
      ],
      "type": "VEC2"
    },
    {
      "bufferView": 0,
      "byteOffset": 35328,
      "componentType": 5125,
      "count": 8832,
      "type": "SCALAR"
    },
    {
      "bufferView": 2,
      "byteOffset": 76896,
      "componentType": 5126,
      "count": 802,
      "max": [
        1.5413715839385986,
        0.936773955821991,
        1.5413715839385986
      ],
      "min": [
        -1.5413715839385986,
        0.0,
        -1.5413715839385986
      ],
      "type": "VEC3"
    },
    {
      "bufferView": 2,
      "byteOffset": 86520,
      "componentType": 5126,
      "count": 802,
      "max": [
        0.9848018288612366,
        1.0,
        0.9848014712333679
      ],
      "min": [
        -0.9848018288612366,
        -1.0,
        -0.9848014712333679
      ],
      "type": "VEC3"
    },
    {
      "bufferView": 1,
      "byteOffset": 51264,
      "componentType": 5126,
      "count": 802,
      "max": [
        0.0,
        0.0
      ],
      "min": [
        0.0,
        0.0
      ],
      "type": "VEC2"
    },
    {
      "bufferView": 0,
      "byteOffset": 70656,
      "componentType": 5125,
      "count": 3840,
      "type": "SCALAR"
    },
    {
      "bufferView": 2,
      "byteOffset": 96144,
      "componentType": 5126,
      "count": 642,
      "max": [
        2.8181207180023193,
        0.28964465856552124,
        2.8181207180023193
      ],
      "min": [
        -2.8181207180023193,
        0.0,
        -2.8181207180023193
      ],
      "type": "VEC3"
    },
    {
      "bufferView": 2,
      "byteOffset": 103848,
      "componentType": 5126,
      "count": 642,
      "max": [
        0.9956242442131042,
        1.0,
        0.9956245422363281
      ],
      "min": [
        -0.9956242442131042,
        -1.0,
        -0.9956245422363281
      ],
      "type": "VEC3"
    },
    {
      "bufferView": 1,
      "byteOffset": 57680,
      "componentType": 5126,
      "count": 642,
      "max": [
        0.0,
        0.0
      ],
      "min": [
        0.0,
        0.0
      ],
      "type": "VEC2"
    },
    {
      "bufferView": 0,
      "byteOffset": 86016,
      "componentType": 5125,
      "count": 3648,
      "type": "SCALAR"
    },
    {
      "bufferView": 2,
      "byteOffset": 111552,
      "componentType": 5126,
      "count": 2210,
      "max": [
        1.159135103225708,
        4.081507682800293,
        1.159135103225708
      ],
      "min": [
        -1.159135103225708,
        1.6134533882141113,
        -1.159135103225708
      ],
      "type": "VEC3"
    },
    {
      "bufferView": 2,
      "byteOffset": 138072,
      "componentType": 5126,
      "count": 2210,
      "max": [
        1.0,
        1.0,
        1.0
      ],
      "min": [
        -1.0,
        -1.0,
        -1.0
      ],
      "type": "VEC3"
    },
    {
      "bufferView": 1,
      "byteOffset": 62816,
      "componentType": 5126,
      "count": 2210,
      "max": [
        0.0,
        0.0
      ],
      "min": [
        0.0,
        0.0
      ],
      "type": "VEC2"
    },
    {
      "bufferView": 0,
      "byteOffset": 100608,
      "componentType": 5125,
      "count": 12864,
      "type": "SCALAR"
    }
  ],
  "asset": {
    "extras": {
      "author": "Dr. Ajeet Raj (https://sketchfab.com/ajeetrajhere)",
      "license": "SKETCHFAB Standard (https://sketchfab.com/licenses)",
      "source": "https://sketchfab.com/3d-models/indian-clay-matka-water-clay-pot-586797b6f0c2423b82e7699860ebe7cc",
      "title": "Indian Clay Matka - Water Clay Pot"
    },
    "generator": "Sketchfab-16.68.0",
    "version": "2.0"
  },
  "bufferViews": [
    {
      "buffer": 0,
      "byteLength": 152064,
      "name": "floatBufferViews",
      "target": 34963
    },
    {
      "buffer": 0,
      "byteLength": 80496,
      "byteOffset": 152064,
      "byteStride": 8,
      "name": "floatBufferViews",
      "target": 34962
    },
    {
      "buffer": 0,
      "byteLength": 164592,
      "byteOffset": 232560,
      "byteStride": 12,
      "name": "floatBufferViews",
      "target": 34962
    }
  ],
  "buffers": [
    {
      "byteLength": 397152,
      "uri": "scene.bin"
    }
  ],
  "extensionsUsed": [
    "KHR_materials_specular"
  ],
  "images": [
    {
      "uri": "textures/Material.001_baseColor.jpeg"
    }
  ],
  "materials": [
    {
      "doubleSided": true,
      "extensions": {
        "KHR_materials_specular": {
          "specularColorFactor": [
            1.0,
            1.0,
            1.0
          ],
          "specularFactor": 0.0
        }
      },
      "name": "Material.001",
      "pbrMetallicRoughness": {
        "baseColorTexture": {
          "index": 0
        },
        "metallicFactor": 0.0
      }
    },
    {
      "doubleSided": true,
      "name": "Material.002",
      "pbrMetallicRoughness": {
        "metallicFactor": 0.876364,
        "roughnessFactor": 0.0309091
      }
    }
  ],
  "meshes": [
    {
      "name": "Object_0",
      "primitives": [
        {
          "attributes": {
            "NORMAL": 1,
            "POSITION": 0,
            "TEXCOORD_0": 2,
            "TEXCOORD_1": 3
          },
          "indices": 4,
          "material": 0,
          "mode": 4
        }
      ]
    },
    {
      "name": "Object_1",
      "primitives": [
        {
          "attributes": {
            "NORMAL": 6,
            "POSITION": 5,
            "TEXCOORD_0": 7,
            "TEXCOORD_1": 8
          },
          "indices": 9,
          "material": 0,
          "mode": 4
        }
      ]
    },
    {
      "name": "Object_2",
      "primitives": [
        {
          "attributes": {
            "NORMAL": 11,
            "POSITION": 10,
            "TEXCOORD_0": 12
          },
          "indices": 13,
          "material": 1,
          "mode": 4
        }
      ]
    },
    {
      "name": "Object_3",
      "primitives": [
        {
          "attributes": {
            "NORMAL": 15,
            "POSITION": 14,
            "TEXCOORD_0": 16
          },
          "indices": 17,
          "material": 1,
          "mode": 4
        }
      ]
    },
    {
      "name": "Object_4",
      "primitives": [
        {
          "attributes": {
            "NORMAL": 19,
            "POSITION": 18,
            "TEXCOORD_0": 20
          },
          "indices": 21,
          "material": 1,
          "mode": 4
        }
      ]
    }
  ],
  "nodes": [
    {
      "children": [
        1
      ],
      "matrix": [
        1.0,
        0.0,
        0.0,
        0.0,
        0.0,
        2.220446049250313e-16,
        -1.0,
        0.0,
        0.0,
        1.0,
        2.220446049250313e-16,
        0.0,
        0.0,
        0.0,
        0.0,
        1.0
      ],
      "name": "Sketchfab_model"
    },
    {
      "children": [
        2
      ],
      "name": "root"
    },
    {
      "children": [
        3,
        5,
        7,
        9,
        11
      ],
      "matrix": [
        1.0,
        0.0,
        0.0,
        0.0,
        0.0,
        2.220446049250313e-16,
        1.0,
        0.0,
        0.0,
        -1.0,
        2.220446049250313e-16,
        0.0,
        0.0,
        0.0,
        0.0,
        1.0
      ],
      "name": "GLTF_SceneRootNode"
    },
    {
      "children": [
        4
      ],
      "matrix": [
        1.0,
        0.0,
        0.0,
        0.0,
        0.0,
        1.000241994857788,
        0.0,
        0.0,
        0.0,
        0.0,
        1.0,
        0.0,
        0.0,
        1.1818991899490356,
        0.0,
        1.0
      ],
      "name": "Sphere_0"
    },
    {
      "mesh": 0,
      "name": "Object_4"
    },
    {
      "children": [
        6
      ],
      "matrix": [
        0.7014704942703247,
        0.0,
        0.0,
        0.0,
        -0.0,
        0.6266077724507673,
        -0.31569247304437237,
        0.0,
        0.0,
        0.3156160947734,
        0.6264561716926746,
        0.0,
        0.0,
        0.7055015563964844,
        1.6900138854980469,
        1.0
      ],
      "name": "Sphere.001_1"
    },
    {
      "mesh": 1,
      "name": "Object_6"
    },
    {
      "children": [
        8
      ],
      "matrix": [
        0.3134574294090271,
        0.0,
        0.0,
        0.0,
        0.0,
        0.3134574294090271,
        0.0,
        0.0,
        0.0,
        0.0,
        0.3134574294090271,
        0.0,
        0.0,
        0.0,
        0.0,
        1.0
      ],
      "name": "Circle_2"
    },
    {
      "mesh": 2,
      "name": "Object_8"
    },
    {
      "children": [
        10
      ],
      "matrix": [
        0.18833425641059875,
        0.0,
        0.0,
        0.0,
        0.0,
        0.18833425641059875,
        0.0,
        0.0,
        0.0,
        0.0,
        0.18833425641059875,
        0.0,
        0.0,
        2.2770049571990967,
        0.0,
        1.0
      ],
      "name": "Circle.001_3"
    },
    {
      "mesh": 3,
      "name": "Object_10"
    },
    {
      "children": [
        12
      ],
      "matrix": [
        0.15389558672904968,
        0.0,
        0.0,
        0.0,
        0.0,
        0.15389558672904968,
        0.0,
        0.0,
        0.0,
        0.0,
        0.15389558672904968,
        0.0,
        0.0,
        2.0321550369262695,
        0.0,
        1.0
      ],
      "name": "Circle.002_4"
    },
    {
      "mesh": 4,
      "name": "Object_12"
    }
  ],
  "samplers": [
    {
      "magFilter": 9729,
      "minFilter": 9987,
      "wrapS": 10497,
      "wrapT": 10497
    }
  ],
  "scene": 0,
  "scenes": [
    {
      "name": "Sketchfab_Scene",
      "nodes": [
        0
      ]
    }
  ],
  "textures": [
    {
      "sampler": 0,
      "source": 0
    }
  ]
}
