{
  "accessors": [
    {
      "bufferView": 2,
      "componentType": 5126,
      "count": 41606,
      "max": [
        1.7472707033157349,
        0.7416243553161621,
        2.4812076091766357
      ],
      "min": [
        -1.1772205829620361,
        -1.6127841472625732,
        -0.6388163566589355
      ],
      "type": "VEC3"
    },
    {
      "bufferView": 2,
      "byteOffset": 499272,
      "componentType": 5126,
      "count": 41606,
      "max": [
        1.0,
        1.0,
        1.0
      ],
      "min": [
        -1.0,
        -1.0,
        -1.0
      ],
      "type": "VEC3"
    },
    {
      "bufferView": 3,
      "componentType": 5126,
      "count": 41606,
      "max": [
        1.0,
        1.0,
        1.0,
        1.0
      ],
      "min": [
        -1.0,
        -1.0,
        -1.0,
        1.0
      ],
      "type": "VEC4"
    },
    {
      "bufferView": 1,
      "componentType": 5126,
      "count": 41606,
      "max": [
        0.9947524666786194,
        0.9992855191230774
      ],
      "min": [
        0.0007144353585317731,
        0.0007144808769226074
      ],
      "type": "VEC2"
    },
    {
      "bufferView": 1,
      "byteOffset": 332848,
      "componentType": 5126,
      "count": 41606,
      "max": [
        0.0,
        1.0
      ],
      "min": [
        0.0,
        1.0
      ],
      "type": "VEC2"
    },
    {
      "bufferView": 0,
      "componentType": 5125,
      "count": 211872,
      "type": "SCALAR"
    },
    {
      "bufferView": 2,
      "byteOffset": 998544,
      "componentType": 5126,
      "count": 928,
      "max": [
        0.3033367097377777,
        0.11469467729330063,
        0.21955665946006775
      ],
      "min": [
        -0.3019910454750061,
        0.00939534604549408,
        -0.07767315208911896
      ],
      "type": "VEC3"
    },
    {
      "bufferView": 2,
      "byteOffset": 1009680,
      "componentType": 5126,
      "count": 928,
      "max": [
        0.9767388701438904,
        0.9802168607711792,
        0.7428777813911438
      ],
      "min": [
        -0.9786027669906616,
        -0.9703762531280518,
        -0.7395150065422058
      ],
      "type": "VEC3"
    },
    {
      "bufferView": 1,
      "byteOffset": 665696,
      "componentType": 5126,
      "count": 928,
      "max": [
        1.0,
        1.0
      ],
      "min": [
        0.0,
        0.0
      ],
      "type": "VEC2"
    },
    {
      "bufferView": 1,
      "byteOffset": 673120,
      "componentType": 5126,
      "count": 928,
      "max": [
        0.9464821815490723,
        0.8124899864196777
      ],
      "min": [
        0.2895748019218445,
        0.047936439514160156
      ],
      "type": "VEC2"
    },
    {
      "bufferView": 0,
      "byteOffset": 847488,
      "componentType": 5125,
      "count": 2640,
      "type": "SCALAR"
    },
    {
      "bufferView": 2,
      "byteOffset": 1020816,
      "componentType": 5126,
      "count": 242,
      "max": [
        0.06288155913352966,
        0.11281876266002655,
        0.1376347690820694
      ],
      "min": [
        -0.0628909096121788,
        -0.012953702360391617,
        0.011862297542393208
      ],
      "type": "VEC3"
    },
    {
      "bufferView": 2,
      "byteOffset": 1023720,
      "componentType": 5126,
      "count": 242,
      "max": [
        0.7278916835784912,
        0.9963086247444153,
        0.7278916835784912
      ],
      "min": [
        -0.7278916835784912,
        -0.6857031583786011,
        -0.7278916835784912
      ],
      "type": "VEC3"
    },
    {
      "bufferView": 1,
      "byteOffset": 680544,
      "componentType": 5126,
      "count": 242,
      "max": [
        1.0,
        0.9900000095367432
      ],
      "min": [
        0.0,
        0.0
      ],
      "type": "VEC2"
    },
    {
      "bufferView": 1,
      "byteOffset": 682480,
      "componentType": 5126,
      "count": 242,
      "max": [
        0.8694708347320557,
        0.7255055904388428
      ],
      "min": [
        0.2896040976047516,
        0.5129342079162598
      ],
      "type": "VEC2"
    },
    {
      "bufferView": 0,
      "byteOffset": 858048,
      "componentType": 5125,
      "count": 666,
      "type": "SCALAR"
    },
    {
      "bufferView": 2,
      "byteOffset": 1026624,
      "componentType": 5126,
      "count": 137,
      "max": [
        0.056931111961603165,
        0.11541122943162918,
        0.1316843181848526
      ],
      "min": [
        -0.0569404661655426,
        0.10621363669633865,
        0.017812740057706833
      ],
      "type": "VEC3"
    },
    {
      "bufferView": 2,
      "byteOffset": 1028268,
      "componentType": 5126,
      "count": 137,
      "max": [
        0.9771356582641602,
        1.0,
        0.9771356582641602
      ],
      "min": [
        -0.9771356582641602,
        0.18959681689739227,
        -0.9771356582641602
      ],
      "type": "VEC3"
    },
    {
      "bufferView": 1,
      "byteOffset": 684416,
      "componentType": 5126,
      "count": 137,
      "max": [
        0.4672907292842865,
        0.9672906398773193
      ],
      "min": [
        0.03270934894680977,
        0.5327093601226807
      ],
      "type": "VEC2"
    },
    {
      "bufferView": 1,
      "byteOffset": 685512,
      "componentType": 5126,
      "count": 137,
      "max": [
        0.661277711391449,
        0.723717451095581
      ],
      "min": [
        0.289604127407074,
        0.5015124082565308
      ],
      "type": "VEC2"
    },
    {
      "bufferView": 0,
      "byteOffset": 860712,
      "componentType": 5125,
      "count": 480,
      "type": "SCALAR"
    }
  ],
  "asset": {
    "extras": {
      "author": "Encient Indian (https://sketchfab.com/AncientIndian3384)",
      "license": "SKETCHFAB Standard (https://sketchfab.com/licenses)",
      "source": "https://sketchfab.com/3d-models/mahadev-shivalinga-fff8faf36773452aa8d4a90b79d828b6",
      "title": "Mahadev Shivalinga"
    },
    "generator": "Sketchfab-16.64.0",
    "version": "2.0"
  },
  "bufferViews": [
    {
      "buffer": 0,
      "byteLength": 862632,
      "name": "floatBufferViews",
      "target": 34963
    },
    {
      "buffer": 0,
      "byteLength": 686608,
      "byteOffset": 862632,
      "byteStride": 8,
      "name": "floatBufferViews",
      "target": 34962
    },
    {
      "buffer": 0,
      "byteLength": 1029912,
      "byteOffset": 1549240,
      "byteStride": 12,
      "name": "floatBufferViews",
      "target": 34962
    },
    {
      "buffer": 0,
      "byteLength": 665696,
      "byteOffset": 2579152,
      "byteStride": 16,
      "name": "floatBufferViews",
      "target": 34962
    }
  ],
  "buffers": [
    {
      "byteLength": 3244848,
      "uri": "scene.bin"
    }
  ],
  "images": [
    {
      "uri": "textures/Material.001_normal.png"
    }
  ],
  "materials": [
    {
      "doubleSided": true,
      "name": "Material.001",
      "normalTexture": {
        "index": 0
      },
      "pbrMetallicRoughness": {
        "baseColorFactor": [
          0.0,
          0.0,
          0.0,
          1.0
        ],
        "metallicFactor": 0.0,
        "roughnessFactor": 0.444882
      }
    },
    {
      "doubleSided": true,
      "name": "Material.002",
      "pbrMetallicRoughness": {
        "baseColorFactor": [
          0.8,
          0.8,
          0.8,
          1.0
        ],
        "metallicFactor": 0.0,
        "roughnessFactor": 0.5
      }
    },
    {
      "doubleSided": true,
      "name": "Material.003",
      "pbrMetallicRoughness": {
        "baseColorFactor": [
          0.800266,
          0.384982,
          0.0256979,
          1.0
        ],
        "roughnessFactor": 0.42126
      }
    },
    {
      "doubleSided": true,
      "name": "Material.004",
      "pbrMetallicRoughness": {
        "baseColorFactor": [
          0.800102,
          0.0145319,
          0.0,
          1.0
        ],
        "roughnessFactor": 0.338583
      }
    }
  ],
  "meshes": [
    {
      "name": "Object_0",
      "primitives": [
        {
          "attributes": {
            "NORMAL": 1,
            "POSITION": 0,
            "TANGENT": 2,
            "TEXCOORD_0": 3,
            "TEXCOORD_1": 4
          },
          "indices": 5,
          "material": 0,
          "mode": 4
        }
      ]
    },
    {
      "name": "Object_1",
      "primitives": [
        {
          "attributes": {
            "NORMAL": 7,
            "POSITION": 6,
            "TEXCOORD_0": 8,
            "TEXCOORD_1": 9
          },
          "indices": 10,
          "material": 1,
          "mode": 4
        }
      ]
    },
    {
      "name": "Object_2",
      "primitives": [
        {
          "attributes": {
            "NORMAL": 12,
            "POSITION": 11,
            "TEXCOORD_0": 13,
            "TEXCOORD_1": 14
          },
          "indices": 15,
          "material": 2,
          "mode": 4
        }
      ]
    },
    {
      "name": "Object_3",
      "primitives": [
        {
          "attributes": {
            "NORMAL": 17,
            "POSITION": 16,
            "TEXCOORD_0": 18,
            "TEXCOORD_1": 19
          },
          "indices": 20,
          "material": 3,
          "mode": 4
        }
      ]
    }
  ],
  "nodes": [
    {
      "children": [
        1
      ],
      "matrix": [
        1.0,
        0.0,
        0.0,
        0.0,
        0.0,
        2.220446049250313e-16,
        -1.0,
        0.0,
        0.0,
        1.0,
        2.220446049250313e-16,
        0.0,
        0.0,
        0.0,
        0.0,
        1.0
      ],
      "name": "Sketchfab_model"
    },
    {
      "children": [
        2
      ],
      "name": "root"
    },
    {
      "children": [
        3
      ],
      "matrix": [
        1.0,
        0.0,
        0.0,
        0.0,
        0.0,
        2.220446049250313e-16,
        1.0,
        0.0,
        0.0,
        -1.0,
        2.220446049250313e-16,
        0.0,
        0.0,
        0.0,
        0.0,
        1.0
      ],
      "name": "GLTF_SceneRootNode"
    },
    {
      "children": [
        4,
        5,
        6,
        7
      ],
      "matrix": [
        1.0,
        0.0,
        0.0,
        0.0,
        0.0,
        0.0,
        1.0,
        0.0,
        0.0,
        -1.0,
        0.0,
        0.0,
        1.6373123798985034e-05,
        2.2639567852020264,
        0.43557995557785034,
        1.0
      ],
      "name": "Shivalinga_0"
    },
    {
      "mesh": 0,
      "name": "Object_4"
    },
    {
      "mesh": 1,
      "name": "Object_5"
    },
    {
      "mesh": 2,
      "name": "Object_6"
    },
    {
      "mesh": 3,
      "name": "Object_7"
    }
  ],
  "samplers": [
    {
      "magFilter": 9729,
      "minFilter": 9987,
      "wrapS": 10497,
      "wrapT": 10497
    }
  ],
  "scene": 0,
  "scenes": [
    {
      "name": "Sketchfab_Scene",
      "nodes": [
        0
      ]
    }
  ],
  "textures": [
    {
      "sampler": 0,
      "source": 0
    }
  ]
}
