{
  "accessors": [
    {
      "bufferView": 2,
      "componentType": 5126,
      "count": 14548,
      "max": [
        0.9972760081291199,
        0.5315359830856323,
        0.62186199426651
      ],
      "min": [
        -0.995710015296936,
        -0.501209020614624,
        -0.6224240064620972
      ],
      "type": "VEC3"
    },
    {
      "bufferView": 2,
      "byteOffset": 174576,
      "componentType": 5126,
      "count": 14548,
      "max": [
        0.9944698214530945,
        0.9999996423721313,
        0.999934732913971
      ],
      "min": [
        -0.9994572997093201,
        -0.9999966025352478,
        -0.9999740123748779
      ],
      "type": "VEC3"
    },
    {
      "bufferView": 3,
      "componentType": 5126,
      "count": 14548,
      "max": [
        0.9999976754188538,
        0.9998868107795715,
        0.9999658465385437,
        -1.0
      ],
      "min": [
        -1.0,
        -0.999956488609314,
        -0.999783456325531,
        -1.0
      ],
      "type": "VEC4"
    },
    {
      "bufferView": 1,
      "componentType": 5126,
      "count": 14548,
      "max": [
        0.9979689717292786,
        0.999987006187439
      ],
      "min": [
        0.0002390000008745119,
        6.973743438720703e-06
      ],
      "type": "VEC2"
    },
    {
      "bufferView": 1,
      "byteOffset": 116384,
      "componentType": 5126,
      "count": 14548,
      "max": [
        0.9979689717292786,
        0.999987006187439
      ],
      "min": [
        0.0002390000008745119,
        6.973743438720703e-06
      ],
      "type": "VEC2"
    },
    {
      "bufferView": 1,
      "byteOffset": 232768,
      "componentType": 5126,
      "count": 14548,
      "max": [
        0.9979689717292786,
        0.999987006187439
      ],
      "min": [
        0.0002390000008745119,
        6.973743438720703e-06
      ],
      "type": "VEC2"
    },
    {
      "bufferView": 1,
      "byteOffset": 349152,
      "componentType": 5126,
      "count": 14548,
      "max": [
        0.9979689717292786,
        0.999987006187439
      ],
      "min": [
        0.0002390000008745119,
        6.973743438720703e-06
      ],
      "type": "VEC2"
    },
    {
      "bufferView": 0,
      "componentType": 5125,
      "count": 57678,
      "type": "SCALAR"
    }
  ],
  "asset": {
    "extras": {
      "author": "ALEXMOt (https://sketchfab.com/ALEXMOt)",
      "license": "SKETCHFAB Standard (https://sketchfab.com/licenses)",
      "source": "https://sketchfab.com/3d-models/golden-ritual-lamp-26c50576d082497e816d2bf698247bf4",
      "title": "Golden Ritual Lamp"
    },
    "generator": "Sketchfab-16.73.0",
    "version": "2.0"
  },
  "bufferViews": [
    {
      "buffer": 0,
      "byteLength": 230712,
      "name": "floatBufferViews",
      "target": 34963
    },
    {
      "buffer": 0,
      "byteLength": 465536,
      "byteOffset": 230712,
      "byteStride": 8,
      "name": "floatBufferViews",
      "target": 34962
    },
    {
      "buffer": 0,
      "byteLength": 349152,
      "byteOffset": 696248,
      "byteStride": 12,
      "name": "floatBufferViews",
      "target": 34962
    },
    {
      "buffer": 0,
      "byteLength": 232768,
      "byteOffset": 1045400,
      "byteStride": 16,
      "name": "floatBufferViews",
      "target": 34962
    }
  ],
  "buffers": [
    {
      "byteLength": 1278168,
      "uri": "scene.bin"
    }
  ],
  "images": [
    {
      "uri": "textures/material_0_baseColor.jpeg"
    },
    {
      "uri": "textures/material_0_metallicRoughness.png"
    },
    {
      "uri": "textures/material_0_normal.jpeg"
    }
  ],
  "materials": [
    {
      "doubleSided": true,
      "name": "material_0",
      "normalTexture": {
        "index": 2
      },
      "pbrMetallicRoughness": {
        "baseColorTexture": {
          "index": 0
        },
        "metallicRoughnessTexture": {
          "index": 1
        }
      }
    }
  ],
  "meshes": [
    {
      "name": "Object_0",
      "primitives": [
        {
          "attributes": {
            "NORMAL": 1,
            "POSITION": 0,
            "TANGENT": 2,
            "TEXCOORD_0": 3,
            "TEXCOORD_1": 4,
            "TEXCOORD_2": 5,
            "TEXCOORD_3": 6
          },
          "indices": 7,
          "material": 0,
          "mode": 4
        }
      ]
    }
  ],
  "nodes": [
    {
      "children": [
        1
      ],
      "matrix": [
        1.0,
        0.0,
        0.0,
        0.0,
        0.0,
        2.220446049250313e-16,
        -1.0,
        0.0,
        0.0,
        1.0,
        2.220446049250313e-16,
        0.0,
        0.0,
        0.0,
        0.0,
        1.0
      ],
      "name": "Sketchfab_model"
    },
    {
      "children": [
        2
      ],
      "name": "root"
    },
    {
      "children": [
        3
      ],
      "matrix": [
        1.0,
        0.0,
        0.0,
        0.0,
        0.0,
        2.220446049250313e-16,
        1.0,
        0.0,
        0.0,
        -1.0,
        2.220446049250313e-16,
        0.0,
        0.0,
        0.0,
        0.0,
        1.0
      ],
      "name": "GLTF_SceneRootNode"
    },
    {
      "children": [
        4
      ],
      "name": "_0"
    },
    {
      "mesh": 0,
      "name": "Object_4"
    }
  ],
  "samplers": [
    {
      "magFilter": 9729,
      "minFilter": 9987,
      "wrapS": 10497,
      "wrapT": 10497
    }
  ],
  "scene": 0,
  "scenes": [
    {
      "name": "Sketchfab_Scene",
      "nodes": [
        0
      ]
    }
  ],
  "textures": [
    {
      "sampler": 0,
      "source": 0
    },
    {
      "sampler": 0,
      "source": 1
    },
    {
      "sampler": 0,
      "source": 2
    }
  ]
}
